<svg width="512" height="512" xmlns="http://www.w3.org/2000/svg">
 <g>
  <title>Dotli</title>
  <path fill="#42b883" d="m412.34,256a156.50549,156.50549 0 0 0 -156.34,-156.34l-156.34,0l0,46.89097l156.34,0a109.44903,109.44903 0 0 1 0,218.89806l-109.44903,0l0,-152.47839l109.44903,0a42.97419,42.97419 0 1 1 0,85.94838l-43.02936,0l0,-66.19901l-47.11163,0l0,113.08998l89.92032,0a89.86515,89.86515 0 1 0 0,-179.73031l-156.11933,0l0,246.26032l156.34,0a156.56066,156.56066 0 0 0 156.34,-156.34z" id="svg"/>
 </g>

</svg>